HIERARCHY
ROOT Pelvis
{
	OFFSET 0.000000 0.000000 0.000000
	CHANNELS 6 Xposition Yposition Zposition Xrotation Yrotation Zrotation
	JOINT LeftUpLeg_virtual
	{
		OFFSET 0.000000 0.000000 0.000000
		CHANNELS 3 Xrotation Yrotation Zrotation
		JOINT LeftUpLeg
		{
			OFFSET 18.735201 -5.666702 -4.541200
			CHANNELS 3 Xrotation Yrotation Zrotation
			JOINT LeftLeg
			{
				OFFSET -0.021200 -31.938179 0.493100
				CHANNELS 3 Xrotation Yrotation Zrotation
				JOINT LeftFoot
				{
					OFFSET 0.021200 -31.938179 -4.336299
					CHANNELS 3 Xrotation Yrotation Zrotation
					JOINT LeftToeBase
					{
						OFFSET 0.943001 -26.722000 15.023500
						CHANNELS 3 Xrotation Yrotation Zrotation
						End Site
						{
							OFFSET 0 0 0
						}
					}
				}
			}
		}
	}
	JOINT RightUpLeg_virtual
	{
		OFFSET 0.000000 0.000000 0.000000
		CHANNELS 3 Xrotation Yrotation Zrotation
		JOINT RightUpLeg
		{
			OFFSET -18.735201 -5.666702 -4.541200
			CHANNELS 3 Xrotation Yrotation Zrotation
			JOINT RightLeg
			{
				OFFSET 0.018946 -31.938133 0.493100
				CHANNELS 3 Xrotation Yrotation Zrotation
				JOINT RightFoot
				{
					OFFSET -0.018946 -31.938126 -4.336299
					CHANNELS 3 Xrotation Yrotation Zrotation
					JOINT RightToeBase
					{
						OFFSET -0.943001 -26.722004 15.023500
						CHANNELS 3 Xrotation Yrotation Zrotation
						End Site
						{
							OFFSET 0 0 0
						}
					}
				}
			}
		}
	}
	JOINT Hips_virtual
	{
		OFFSET 0.000000 0.000000 0.000000
		CHANNELS 3 Xrotation Yrotation Zrotation
		JOINT Hips
		{
			OFFSET -0.000000 -0.000000 -0.000000
			CHANNELS 3 Xrotation Yrotation Zrotation
			JOINT Spine
			{
				OFFSET 0.000000 10.199997 -0.299500
				CHANNELS 3 Xrotation Yrotation Zrotation
				JOINT Spine1
				{
					OFFSET 0.000000 11.900002 -1.516600
					CHANNELS 3 Xrotation Yrotation Zrotation
					JOINT Spine2
					{
						OFFSET 0.000000 13.600006 -2.842500
						CHANNELS 3 Xrotation Yrotation Zrotation
						JOINT Neck_virtual
						{
							OFFSET 0.000000 0.000000 0.000000
							CHANNELS 3 Xrotation Yrotation Zrotation
							JOINT Neck
							{
								OFFSET 0.000000 9.624100 -2.890100
								CHANNELS 3 Xrotation Yrotation Zrotation
								JOINT Head
								{
									OFFSET 0.000000 14.068802 -1.351900
									CHANNELS 3 Xrotation Yrotation Zrotation
									End Site
									{
										OFFSET 0 0 0
									}
								}
							}
						}
						JOINT LeftShoulder_virtual
						{
							OFFSET 0.000000 0.000000 0.000000
							CHANNELS 3 Xrotation Yrotation Zrotation
							JOINT LeftShoulder
							{
								OFFSET 15.263000 10.923401 -0.547700
								CHANNELS 3 Xrotation Yrotation Zrotation
								JOINT LeftArm
								{
									OFFSET 25.438599 -2.830597 -13.032500
									CHANNELS 3 Xrotation Yrotation Zrotation
									JOINT LeftForeArm
									{
										OFFSET 29.960503 0.000000 0.000000
										CHANNELS 3 Xrotation Yrotation Zrotation
										JOINT LeftHand
										{
											OFFSET 27.849251 0.000000 0.000000
											CHANNELS 3 Xrotation Yrotation Zrotation
											End Site
											{
												OFFSET 0 0 0
											}
										}
									}
								}
							}
						}
						JOINT RightShoulder_virtual
						{
							OFFSET 0.000000 0.000000 0.000000
							CHANNELS 3 Xrotation Yrotation Zrotation
							JOINT RightShoulder
							{
								OFFSET -15.263000 10.923401 -0.547700
								CHANNELS 3 Xrotation Yrotation Zrotation
								JOINT RightArm
								{
									OFFSET -25.438599 -2.830597 -13.032500
									CHANNELS 3 Xrotation Yrotation Zrotation
									JOINT RightForeArm
									{
										OFFSET -29.960503 0.000000 0.000000
										CHANNELS 3 Xrotation Yrotation Zrotation
										JOINT RightHand
										{
											OFFSET -27.849251 0.000000 0.000000
											CHANNELS 3 Xrotation Yrotation Zrotation
											End Site
											{
												OFFSET 0 0 0
											}
										}
									}
								}
							}
						}
					}
				}
			}
		}
	}
}
MOTION
Frames: 10
Frame Time: 0.03333333
9.896916 78.149879 -8.174866 0.000000 0.000000 0.000000 33.434206 -77.909591 37.361428 -40.766565 -14.776715 22.238717 45.641820 -12.576281 1.228247 -10.876875 -11.460494 -13.799945 0.000000 0.000000 0.000000 21.693321 -50.822690 6.274853 -16.149772 -20.395000 -25.350693 44.834875 13.508931 -3.579553 -15.583141 8.872825 16.129502 0.000000 0.000000 0.000000 -1.725037 -40.177707 3.042440 9.389081 -40.464759 6.093065 6.522343 4.542429 0.608302 0.949836 2.578291 0.912573 0.000000 0.000000 0.000000 3.927232 3.671501 -0.552843 -0.467252 2.998703 -0.303581 0.000000 0.000000 0.000000 2.734395 3.721090 0.172846 2.096228 11.129005 -5.718366 -19.331252 -19.384529 -63.236432 -11.167443 -78.459790 -15.703604 0.000000 0.000000 0.000000 3.391669 3.273030 -0.225005 1.278554 11.167687 9.305076 -19.362087 26.547361 48.833288 -178.181918 84.417737 177.885898 0.000000 0.000000 0.000000 
10.014163 78.450966 -8.011803 0.000000 0.000000 0.000000 30.586588 -77.809515 34.678660 -41.489742 -14.626618 21.895881 45.148708 -12.999526 1.396845 -11.323317 -11.876324 -13.826515 0.000000 0.000000 0.000000 20.918749 -51.157570 5.389862 -16.457356 -20.327039 -25.936171 45.019314 13.467756 -3.325779 -15.342449 8.766230 16.474925 0.000000 0.000000 0.000000 -1.768733 -40.026947 2.998879 9.075913 -40.653153 5.695863 6.550755 4.498431 0.609603 0.984774 2.556405 0.897596 0.000000 0.000000 0.000000 4.028093 3.549026 -0.565089 -0.448362 2.917965 -0.299849 0.000000 0.000000 0.000000 2.786674 3.689565 0.244777 2.071353 11.053813 -5.375024 -18.749172 -19.848607 -63.096441 -10.258154 -78.788828 -14.839754 0.000000 0.000000 0.000000 3.296250 3.202076 -0.281546 1.153684 10.712546 9.210146 -19.072629 26.126011 48.903389 -178.119586 84.243130 177.865284 0.000000 0.000000 0.000000 
10.022203 79.415367 -7.599586 0.000000 0.000000 0.000000 25.966608 -77.040326 30.058262 -41.982318 -14.166253 21.383750 44.655111 -13.574527 1.553690 -11.639738 -12.496150 -13.981844 0.000000 0.000000 0.000000 19.538977 -50.637359 4.160636 -16.974779 -19.949140 -26.296088 44.853446 13.273506 -3.021532 -15.031464 8.620144 16.727246 0.000000 0.000000 0.000000 -1.864171 -39.622023 2.920225 8.261699 -40.252026 4.913379 6.537742 4.457874 0.591558 1.003318 2.534599 0.870648 0.000000 0.000000 0.000000 4.057078 3.411800 -0.615966 -0.463400 2.832548 -0.318280 0.000000 0.000000 0.000000 2.852887 3.646458 0.285156 2.081031 10.980226 -5.165428 -18.254946 -20.365961 -62.886624 -9.259587 -78.931797 -13.856954 0.000000 0.000000 0.000000 3.181297 3.122623 -0.350352 1.020532 10.269712 9.041106 -18.792451 25.696539 48.993189 -178.028744 84.015684 177.819440 0.000000 0.000000 0.000000 
9.811466 80.784576 -7.032684 0.000000 0.000000 0.000000 20.772519 -75.691829 24.866361 -42.463467 -13.519605 20.844042 44.408452 -14.091783 1.713035 -11.664674 -13.138355 -14.130220 0.000000 0.000000 0.000000 18.000608 -49.895474 3.028325 -17.644347 -19.487634 -26.434022 44.860819 12.798597 -2.788213 -14.365901 8.388761 16.710109 0.000000 0.000000 0.000000 -1.974799 -39.051094 2.836401 7.134771 -39.346380 3.902896 6.469872 4.411833 0.565837 0.998401 2.508365 0.837575 0.000000 0.000000 0.000000 4.044154 3.266479 -0.691590 -0.496126 2.746227 -0.350596 0.000000 0.000000 0.000000 2.917745 3.587127 0.311360 2.106150 10.888989 -5.019331 -17.890562 -20.951202 -62.562320 -8.217102 -79.007660 -12.769770 0.000000 0.000000 0.000000 3.055489 3.040421 -0.430631 0.890812 9.862736 8.806679 -18.514797 25.134428 48.970155 -177.842485 83.966159 177.643959 0.000000 0.000000 0.000000 
9.535831 82.478340 -6.385227 0.000000 0.000000 0.000000 17.013979 -74.022926 21.140440 -42.741060 -12.858119 20.582989 44.951104 -14.461595 1.973072 -11.072621 -13.772646 -14.132640 0.000000 0.000000 0.000000 16.563648 -49.118848 2.236642 -18.360030 -19.051634 -26.288056 45.433384 12.131272 -2.625592 -13.195349 8.105525 16.533704 0.000000 0.000000 0.000000 -2.085468 -38.280321 2.756612 5.945943 -37.870073 2.832921 6.343927 4.372268 0.536870 0.965689 2.484828 0.801529 0.000000 0.000000 0.000000 3.985669 3.117236 -0.779953 -0.549387 2.660398 -0.389550 0.000000 0.000000 0.000000 2.963293 3.516105 0.337227 2.122889 10.793586 -4.882606 -17.712398 -21.543419 -62.149428 -7.326652 -79.132550 -11.750258 0.000000 0.000000 0.000000 2.921320 2.966769 -0.515317 0.758865 9.535637 8.543708 -18.291154 24.494114 48.796599 -177.621118 84.076296 177.376666 0.000000 0.000000 0.000000 
9.185362 84.317818 -5.760601 0.000000 0.000000 0.000000 14.576768 -72.260198 18.626740 -42.785459 -12.166894 20.459654 46.226502 -14.659857 2.153987 -9.955516 -14.244500 -14.211754 0.000000 0.000000 0.000000 15.342289 -47.869968 1.710280 -18.955660 -18.532528 -25.890052 46.650086 11.350334 -2.613612 -11.510139 7.853718 16.128279 0.000000 0.000000 0.000000 -2.203627 -37.395214 2.677011 4.773584 -36.058891 1.773066 6.184271 4.316520 0.488611 0.917203 2.452543 0.753220 0.000000 0.000000 0.000000 3.901392 2.958625 -0.868510 -0.612336 2.574041 -0.428842 0.000000 0.000000 0.000000 2.984339 3.427749 0.344151 2.133474 10.677091 -4.836513 -17.724421 -22.073964 -61.827562 -6.793066 -79.247830 -11.066027 0.000000 0.000000 0.000000 2.798364 2.895019 -0.595819 0.646379 9.279193 8.283759 -17.910827 23.868861 48.450654 -177.662509 84.457727 177.374084 0.000000 0.000000 0.000000 
8.807287 86.281548 -5.335098 0.000000 0.000000 0.000000 12.280045 -70.152019 16.314627 -42.911224 -11.396774 20.390645 47.414729 -14.393545 2.149081 -8.755367 -14.211914 -14.183162 0.000000 0.000000 0.000000 14.414383 -45.898335 1.345516 -19.304809 -17.862418 -25.325856 48.901760 10.415184 -2.906397 -8.984282 7.715729 15.245827 0.000000 0.000000 0.000000 -2.360632 -36.467756 2.570425 3.540914 -34.066764 0.711441 5.977869 4.206718 0.431135 0.847434 2.390884 0.698157 0.000000 0.000000 0.000000 3.834191 2.784177 -0.932181 -0.663863 2.482046 -0.455046 0.000000 0.000000 0.000000 2.970910 3.302293 0.353731 2.115110 10.459241 -4.790338 -17.958353 -22.606951 -61.531836 -6.560002 -79.459825 -10.631931 0.000000 0.000000 0.000000 2.693537 2.815631 -0.660434 0.561411 9.052468 8.074360 -17.348774 23.225300 47.921014 -178.035096 85.160089 177.706769 0.000000 0.000000 0.000000 
8.416323 88.464073 -4.851364 0.000000 0.000000 0.000000 10.300607 -67.912981 14.054052 -42.914755 -10.467990 20.093281 48.417476 -13.858703 1.755241 -7.628964 -13.712652 -14.455643 0.000000 0.000000 0.000000 13.666380 -42.983924 1.145061 -19.523097 -16.980509 -24.525927 51.678902 9.596116 -3.427294 -6.100940 7.795335 14.096226 0.000000 0.000000 0.000000 -2.546240 -35.466478 2.446450 2.473149 -31.927316 -0.181627 5.751541 4.044065 0.384374 0.769566 2.298033 0.648124 0.000000 0.000000 0.000000 3.745307 2.592445 -0.974796 -0.723980 2.383347 -0.470962 0.000000 0.000000 0.000000 2.955501 3.151528 0.367397 2.095045 10.182256 -4.737687 -18.220416 -23.176971 -61.228575 -6.324155 -79.722391 -10.190722 0.000000 0.000000 0.000000 2.621818 2.731861 -0.696039 0.512877 8.863461 7.963377 -16.595809 22.597578 47.216555 -179.267536 86.054988 178.902885 0.000000 0.000000 0.000000 
8.012033 90.817253 -4.281460 0.000000 0.000000 0.000000 8.551014 -64.691297 11.781286 -42.574468 -9.183480 19.730149 48.160576 -12.765126 0.978457 -7.192699 -12.454310 -14.700377 0.000000 0.000000 0.000000 12.764982 -39.951057 0.844410 -20.004528 -16.009687 -23.836524 53.298480 8.825995 -3.876312 -4.124825 7.706000 12.889891 0.000000 0.000000 0.000000 -2.659252 -34.440464 2.367600 1.978697 -29.769619 -0.585783 5.523815 3.818176 0.379732 0.692106 2.167753 0.621278 0.000000 0.000000 0.000000 3.629398 2.382761 -0.992142 -0.794400 2.277243 -0.474106 0.000000 0.000000 0.000000 2.932128 2.982250 0.371740 2.076160 9.872454 -4.731526 -18.478942 -23.745199 -60.956617 -6.101676 -79.953785 -9.784349 0.000000 0.000000 0.000000 2.579469 2.622798 -0.711602 0.506760 8.626638 7.912293 -15.729154 21.965117 46.466252 178.328835 87.067153 -178.708348 0.000000 0.000000 0.000000 
7.752070 92.942657 -4.007988 0.000000 0.000000 0.000000 6.150254 -60.208712 9.129969 -42.621251 -7.659334 19.284366 46.540622 -11.300759 -0.068719 -7.572986 -10.650267 -14.948853 0.000000 0.000000 0.000000 11.861597 -36.886508 0.635724 -20.545895 -15.053566 -23.091220 54.025861 8.045342 -4.249249 -2.802501 7.446164 11.645726 0.000000 0.000000 0.000000 -2.735267 -33.429172 2.309771 1.851085 -27.641473 -0.658612 5.303335 3.528027 0.374555 0.619145 2.000216 0.595395 0.000000 0.000000 0.000000 3.496443 2.162376 -1.000204 -0.871026 2.169410 -0.472718 0.000000 0.000000 0.000000 2.899358 2.793926 0.365128 2.056812 9.530413 -4.775377 -18.763045 -24.287842 -60.725812 -5.977467 -80.165725 -9.488711 0.000000 0.000000 0.000000 2.558734 2.487609 -0.719705 0.533606 8.341955 7.865807 -14.928396 21.283348 45.744881 173.955438 88.093813 -174.354266 0.000000 0.000000 0.000000 
